<?xml version="1.0" encoding="utf-8"?>
<!-- Generator: Adobe Illustrator 22.0.1, SVG Export Plug-In . SVG Version: 6.00 Build 0)  -->
<svg version="1.1" xmlns="http://www.w3.org/2000/svg" xmlns:xlink="http://www.w3.org/1999/xlink" x="0px" y="0px"
	 viewBox="0 0 576 512" style="enable-background:new 0 0 576 512;" xml:space="preserve">
<style type="text/css">
	.st0{display:none;}
	.st1{display:inline;fill:#FFFFFF;}
	.st2{display:inline;}
	.st3{fill:#FFFFFF;}
</style>
<g id="Livello_1" class="st0">
	<path class="st1" d="M336.2,64H47.8C21.4,64,0,85.4,0,111.8v288.4C0,426.6,21.4,448,47.8,448h288.4c26.4,0,47.8-21.4,47.8-47.8
		V111.8C384,85.4,362.6,64,336.2,64L336.2,64z M525.6,101.7L416,177.3v157.4l109.6,75.5c21.2,14.6,50.4-0.3,50.4-25.8V127.5
		C576,102.1,546.9,87.1,525.6,101.7z"/>
</g>
<g id="Livello_2" class="st0">
	<g class="st2">
		<g>
			<path class="st3" d="M163.6,102.3C154.1,83,145.5,64.7,135.9,47c-5.1-9.3-3.9-15.1,3.1-23.5C152.9,7,168.9-0.9,190.7,1.9
				c11.2,1.5,22.8,1.5,34,0c23-3.2,39.7,5.3,54,22.8c6.2,7.6,7,12.9,2.6,21.1c-9.8,18.2-18.7,36.9-28.4,56.4
				c12.9,5.8,24.2,10.4,35,15.8c98.7,49.8,125.8,181.4,54.9,266.4c-16.6,20-22.4,19.8-38.1-1.3c-14.9-20-15.3-29.9-2.1-50.2
				c18.4-28.3,21.3-58.6,12.4-93.1c-6.3,3.2-11.7,4.8-15.7,8.1c-34.4,28.7-49.7,65.3-41.4,109.6c8.3,44.3,35.6,73.5,78.6,86.6
				c52.8,16.1,111.4-11.4,133.3-61.3c23.2-53.1,3.5-113.6-45.6-143.4c-6.7-4.1-12-12.5-15.3-20c-7.6-17.6-13.5-35.9-21-56.3
				c9.4,1.8,18.1,2.7,26.3,5.3C480.5,189.3,524,233,538,301.4c13.5,66.2-5.8,123.4-57.7,167.9c-71.4,61.3-175,54.7-240.5-13.8
				c-5.2-5.5-15.7-8.4-23.7-8.2c-46,1.1-86.7-12.4-121.8-42c-64.2-54.1-79.2-150.8-35.6-222.6c21.6-35.5,52.3-59,90.3-74.2
				C153.2,106.9,157.4,104.9,163.6,102.3z M277.5,188.1c-25.7-29.3-82.1-35.2-121.8-13.9c-46.9,25.2-69.5,78.2-55.4,130
				c11.8,43.1,56.7,79.6,98,78.2C182.1,300.4,207.7,234.8,277.5,188.1z"/>
		</g>
	</g>
</g>
<g id="Livello_3">
	<g>
		<path class="st3" d="M421.2,50v412H154.8V50H421.2 M471.2,0H104.8v512h366.3V0L471.2,0z"/>
	</g>
</g>
</svg>
