<?xml version="1.0" encoding="utf-8"?>
<!-- Generator: Adobe Illustrator 22.0.1, SVG Export Plug-In . SVG Version: 6.00 Build 0)  -->
<svg version="1.1" xmlns="http://www.w3.org/2000/svg" xmlns:xlink="http://www.w3.org/1999/xlink" x="0px" y="0px"
	 viewBox="0 0 30 30" style="enable-background:new 0 0 30 30;" xml:space="preserve">
<style type="text/css">
	.st0{fill:none;}
</style>
<g id="Livello_2">
	<g>
		<rect class="st0" width="30" height="30"/>
	</g>
</g>
<g id="Livello_1">
	<g>
		<path d="M15,8c4.4,0,8,3.6,8,8s-3.6,8-8,8s-8-3.6-8-8S10.6,8,15,8 M15,2C7.3,2,1,8.3,1,16s6.3,14,14,14s14-6.3,14-14S22.7,2,15,2
			L15,2z"/>
	</g>
	<g>
		<path d="M27.5,0C26.1,0,25,1.1,25,2.5S26.1,5,27.5,5S30,3.9,30,2.5S28.9,0,27.5,0L27.5,0z"/>
	</g>
</g>
</svg>
