<?xml version="1.0" encoding="utf-8"?>
<!-- Generator: Adobe Illustrator 22.0.1, SVG Export Plug-In . SVG Version: 6.00 Build 0)  -->
<svg version="1.1" xmlns="http://www.w3.org/2000/svg" xmlns:xlink="http://www.w3.org/1999/xlink" x="0px" y="0px"
	 viewBox="0 0 15 15" style="enable-background:new 0 0 15 15;" xml:space="preserve">
<style type="text/css">
	.st0{display:none;}
	.st1{display:inline;opacity:0.15;fill:#00FF00;}
	.st2{display:inline;fill:url(#SVGID_1_);}
	.st3{display:inline;opacity:0.15;fill:#FF0000;}
	.st4{display:inline;fill:url(#SVGID_2_);}
	.st5{display:inline;fill:url(#SVGID_3_);}
	.st6{display:inline;opacity:0.15;fill:#0000FF;}
	.st7{display:inline;fill:url(#SVGID_4_);}
	.st8{display:inline;fill:#0000FF;}
	.st9{fill:#B31AFF;}
	.st10{fill:#FFFFFF;}
	.st11{font-family:'ArialMT';}
	.st12{font-size:10.1629px;}
</style>
<g id="Livello_1" class="st0">
	<path class="st1" d="M3.9,3.7c0.1-0.1,0.2-0.1,0.3,0l3.4,3.4l0.1,0.1l3.6,3.6c0.1,0.1,0.1,0.2,0,0.3h0c-0.1,0.1-0.2,0.1-0.3,0
		L7.3,7.4L3.9,4C3.8,3.9,3.8,3.8,3.9,3.7L3.9,3.7z"/>
	<linearGradient id="SVGID_1_" gradientUnits="userSpaceOnUse" x1="0.1645" y1="5.654" x2="4.3303" y2="5.654">
		<stop  offset="0" style="stop-color:#000000"/>
		<stop  offset="7.380247e-03" style="stop-color:#090000"/>
		<stop  offset="4.767627e-02" style="stop-color:#370000"/>
		<stop  offset="9.308982e-02" style="stop-color:#620000"/>
		<stop  offset="0.1419" style="stop-color:#880000"/>
		<stop  offset="0.195" style="stop-color:#A80000"/>
		<stop  offset="0.2537" style="stop-color:#C40000"/>
		<stop  offset="0.32" style="stop-color:#DA0000"/>
		<stop  offset="0.3974" style="stop-color:#EB0000"/>
		<stop  offset="0.4931" style="stop-color:#F60000"/>
		<stop  offset="0.6274" style="stop-color:#FD0000"/>
		<stop  offset="1" style="stop-color:#FF0000"/>
	</linearGradient>
	<polygon class="st2" points="0.5,7.7 0.2,7.4 4,3.6 4.3,3.9 	"/>
	<rect x="2.9" y="6.8" transform="matrix(0.7071 0.7071 -0.7071 0.7071 6.7778 0.19)" class="st3" width="0.4" height="3"/>
	
		<linearGradient id="SVGID_2_" gradientUnits="userSpaceOnUse" x1="-1.9174" y1="7.0363" x2="2.0796" y2="7.0363" gradientTransform="matrix(1.0089 8.883862e-03 8.883862e-03 1.0089 2.0515 2.0515)">
		<stop  offset="0" style="stop-color:#FF0000"/>
		<stop  offset="0.3726" style="stop-color:#FD0000"/>
		<stop  offset="0.5069" style="stop-color:#F60000"/>
		<stop  offset="0.6026" style="stop-color:#EB0000"/>
		<stop  offset="0.68" style="stop-color:#DA0000"/>
		<stop  offset="0.7463" style="stop-color:#C40000"/>
		<stop  offset="0.805" style="stop-color:#A80000"/>
		<stop  offset="0.8581" style="stop-color:#880000"/>
		<stop  offset="0.9069" style="stop-color:#620000"/>
		<stop  offset="0.9523" style="stop-color:#370000"/>
		<stop  offset="0.9926" style="stop-color:#090000"/>
		<stop  offset="1" style="stop-color:#000000"/>
	</linearGradient>
	<path class="st4" d="M0.5,7.1L0.2,7.4l3.7,3.7c0.1,0.1,0.2,0.1,0.3,0l0,0c0.1-0.1,0.1-0.2,0-0.3L0.5,7.1z"/>
	<linearGradient id="SVGID_3_" gradientUnits="userSpaceOnUse" x1="3.7102" y1="7.4256" x2="11.424" y2="7.4256">
		<stop  offset="0" style="stop-color:#00FF00"/>
		<stop  offset="0.3726" style="stop-color:#00FD00"/>
		<stop  offset="0.5069" style="stop-color:#00F600"/>
		<stop  offset="0.6026" style="stop-color:#00EB00"/>
		<stop  offset="0.68" style="stop-color:#00DA00"/>
		<stop  offset="0.7463" style="stop-color:#00C400"/>
		<stop  offset="0.805" style="stop-color:#00A800"/>
		<stop  offset="0.8581" style="stop-color:#008800"/>
		<stop  offset="0.9069" style="stop-color:#006200"/>
		<stop  offset="0.9523" style="stop-color:#003700"/>
		<stop  offset="0.9926" style="stop-color:#000900"/>
		<stop  offset="1" style="stop-color:#000000"/>
	</linearGradient>
	<polygon class="st5" points="11.1,3.6 7.6,7.1 7.5,7.2 3.7,11 4,11.3 7.9,7.4 11.4,3.9 	"/>
	<rect x="12" y="5.1" transform="matrix(-0.7071 -0.7071 0.7071 -0.7071 16.2839 19.5381)" class="st6" width="0.4" height="2.5"/>
	<linearGradient id="SVGID_4_" gradientUnits="userSpaceOnUse" x1="10.822" y1="5.6479" x2="15" y2="5.6479">
		<stop  offset="0" style="stop-color:#0000FF"/>
		<stop  offset="0.3726" style="stop-color:#0000FD"/>
		<stop  offset="0.5069" style="stop-color:#0000F6"/>
		<stop  offset="0.6026" style="stop-color:#0000EB"/>
		<stop  offset="0.68" style="stop-color:#0000DA"/>
		<stop  offset="0.7463" style="stop-color:#0000C4"/>
		<stop  offset="0.805" style="stop-color:#0000A8"/>
		<stop  offset="0.8581" style="stop-color:#000088"/>
		<stop  offset="0.9069" style="stop-color:#000062"/>
		<stop  offset="0.9523" style="stop-color:#000037"/>
		<stop  offset="0.9926" style="stop-color:#000009"/>
		<stop  offset="1" style="stop-color:#000000"/>
	</linearGradient>
	<polygon class="st7" points="14.7,7.7 15,7.4 11.1,3.6 10.8,3.9 	"/>
	
		<rect x="12.7" y="6.5" transform="matrix(-0.7071 -0.7071 0.7071 -0.7071 15.5437 24.8436)" class="st8" width="0.4" height="5.5"/>
</g>
<g id="Livello_2">
	<path class="st9" d="M11.8,13H2.2C1.5,13,1,12.5,1,11.8V2.2C1,1.5,1.5,1,2.2,1h9.7C12.5,1,13,1.5,13,2.2v9.7
		C13,12.5,12.5,13,11.8,13z"/>
	<text transform="matrix(1 0 0 1 3.8164 10.7207)" class="st10 st11 st12">B</text>
</g>
</svg>
