<?xml version="1.0" encoding="utf-8"?>
<!-- Generator: Adobe Illustrator 22.0.1, SVG Export Plug-In . SVG Version: 6.00 Build 0)  -->
<svg version="1.1" id="Livello_1" xmlns="http://www.w3.org/2000/svg" xmlns:xlink="http://www.w3.org/1999/xlink" x="0px" y="0px"
	 viewBox="0 0 35 35" style="enable-background:new 0 0 35 35;" xml:space="preserve">
<style type="text/css">
	.st0{fill:#FFFFFF;}
	.st1{fill:#FF0000;}
	.st2{fill:#0000FF;}
	.st3{fill:#00FF00;}
</style>
<polygon class="st0" points="21.9,3.9 19.9,1.9 19.9,1.9 18,0 16.1,1.9 14.1,3.9 12.2,5.8 12.2,5.8 10.2,7.8 10.2,7.8 8.3,9.7 
	10.2,11.7 12.2,9.7 12.2,9.7 14.1,7.8 14.1,7.8 16.1,5.8 18,3.9 18,3.9 19.9,5.8 21.9,7.8 23.8,5.8 "/>
<polygon class="st1" points="4.4,17.5 6.3,15.6 8.3,13.6 6.3,11.7 4.4,13.6 2.4,15.6 0.5,17.5 2.4,19.4 4.4,21.4 6.3,23.3 8.3,21.4 
	6.3,19.4 "/>
<polygon class="st2" points="33.6,15.6 31.6,13.6 29.7,11.7 27.7,13.6 29.7,15.6 31.6,17.5 29.7,19.4 27.7,21.4 29.7,23.3 
	31.6,21.4 33.6,19.4 35.5,17.5 "/>
<polygon class="st0" points="25.8,23.3 23.8,25.3 23.8,25.3 21.9,27.2 21.9,27.2 19.9,29.2 18,31.1 16.1,29.2 14.1,27.2 12.2,29.2 
	14.1,31.1 14.1,31.1 16.1,33.1 16.1,33.1 18,35 19.9,33.1 21.9,31.1 23.8,29.2 23.8,29.2 25.8,27.2 25.8,27.2 27.7,25.3 "/>
<polygon class="st3" points="25.8,7.8 23.8,9.7 21.9,11.7 19.9,13.6 18,15.6 16.1,17.5 14.1,19.4 12.2,21.4 10.2,23.3 10.2,23.3 
	8.3,25.3 10.2,27.2 12.2,25.3 12.2,25.3 14.1,23.3 16.1,21.4 18,19.4 19.9,17.5 21.9,15.6 23.8,13.6 25.8,11.7 27.7,9.7 "/>
</svg>
